<svg width="50" height="50" viewBox="0 0 50 50" fill="none" xmlns="http://www.w3.org/2000/svg">
<g filter="url(#filter0_i_5_13)">
<path d="M17.1417 18.75C18.2854 16.3229 21.3708 14.5833 25 14.5833C29.6042 14.5833 33.3333 17.3812 33.3333 20.8333C33.3333 23.75 30.6708 26.1979 27.0708 26.8896C25.9417 27.1062 25 28.0146 25 29.1667M25 35.4167H25.0208M43.75 25C43.75 27.4623 43.265 29.9005 42.3227 32.1753C41.3805 34.4502 39.9993 36.5172 38.2582 38.2582C36.5172 39.9993 34.4502 41.3805 32.1753 42.3227C29.9005 43.265 27.4623 43.75 25 43.75C22.5377 43.75 20.0995 43.265 17.8247 42.3227C15.5498 41.3805 13.4828 39.9993 11.7417 38.2582C10.0006 36.5172 8.61953 34.4502 7.67726 32.1753C6.73498 29.9005 6.25 27.4623 6.25 25C6.25 20.0272 8.22544 15.2581 11.7417 11.7417C15.2581 8.22544 20.0272 6.25 25 6.25C29.9728 6.25 34.7419 8.22544 38.2582 11.7417C41.7746 15.2581 43.75 20.0272 43.75 25Z" stroke="black" stroke-width="2" stroke-linecap="round" stroke-linejoin="round"/>
</g>
<defs>
<filter id="filter0_i_5_13" x="0" y="0" width="50" height="95" filterUnits="userSpaceOnUse" color-interpolation-filters="sRGB">
<feFlood flood-opacity="0" result="BackgroundImageFix"/>
<feBlend mode="normal" in="SourceGraphic" in2="BackgroundImageFix" result="shape"/>
<feColorMatrix in="SourceAlpha" type="matrix" values="0 0 0 0 0 0 0 0 0 0 0 0 0 0 0 0 0 0 127 0" result="hardAlpha"/>
<feOffset dy="45"/>
<feGaussianBlur stdDeviation="22.5"/>
<feComposite in2="hardAlpha" operator="arithmetic" k2="-1" k3="1"/>
<feColorMatrix type="matrix" values="0 0 0 0 0 0 0 0 0 0 0 0 0 0 0 0 0 0 0.25 0"/>
<feBlend mode="normal" in2="shape" result="effect1_innerShadow_5_13"/>
</filter>
</defs>
</svg>
